<svg width="1440" height="407" viewBox="0 0 1440 407" fill="none" xmlns="http://www.w3.org/2000/svg">
<g opacity="0.05">
<path d="M36.5854 2.79065H115.219C126.12 2.79068 132.013 15.5661 124.936 23.858C124.474 24.3996 123.967 24.9018 123.421 25.359L122.74 25.9293C119.134 28.9491 114.701 30.8114 110.02 31.2721L98.7007 32.3864H78.8726C69.9025 32.3864 61.1677 35.2546 53.9429 40.5709C51.8578 42.1052 49.9181 43.8286 48.1499 45.7194L42.729 51.5162C42.1334 52.1532 41.5962 52.8424 41.1245 53.5758C33.8407 64.9023 16.2811 59.7442 16.2808 46.278V23.0953C16.2808 11.8814 25.3716 2.79065 36.5854 2.79065Z" stroke="white"/>
<path d="M107.415 91.1201H28.7808C17.8796 91.1201 11.9873 78.3447 19.064 70.0527C19.5262 69.5111 20.0327 69.0089 20.5786 68.5518L21.2603 67.9814C24.8663 64.9616 29.2991 63.0994 33.98 62.6387L45.2993 61.5244H65.1274C74.0975 61.5243 82.8323 58.6562 90.0571 53.3398C92.1422 51.8055 94.0819 50.0822 95.8501 48.1914L101.271 42.3945C101.867 41.7576 102.404 41.0684 102.875 40.335C110.159 29.0084 127.719 34.1666 127.719 47.6328V70.8154C127.719 82.0293 118.628 91.1201 107.415 91.1201Z" stroke="white"/>
<path d="M180.585 2.79065H259.219C270.12 2.79068 276.013 15.5661 268.936 23.858C268.474 24.3996 267.967 24.9018 267.421 25.359L266.74 25.9293C263.134 28.9491 258.701 30.8114 254.02 31.2721L242.701 32.3864H222.873C213.902 32.3864 205.168 35.2546 197.943 40.5709C195.858 42.1052 193.918 43.8286 192.15 45.7194L186.729 51.5162C186.133 52.1532 185.596 52.8424 185.125 53.5758C177.841 64.9023 160.281 59.7442 160.281 46.278V23.0953C160.281 11.8814 169.372 2.79065 180.585 2.79065Z" stroke="white"/>
<path d="M251.415 91.1201H172.781C161.88 91.1201 155.987 78.3447 163.064 70.0527C163.526 69.5111 164.033 69.0089 164.579 68.5518L165.26 67.9814C168.866 64.9616 173.299 63.0994 177.98 62.6387L189.299 61.5244H209.127C218.098 61.5243 226.832 58.6562 234.057 53.3398C236.142 51.8055 238.082 50.0822 239.85 48.1914L245.271 42.3945C245.867 41.7576 246.404 41.0684 246.875 40.335C254.159 29.0084 271.719 34.1666 271.719 47.6328V70.8154C271.719 82.0293 262.628 91.1201 251.415 91.1201Z" stroke="white"/>
<path d="M324.585 2.79065H403.219C414.12 2.79068 420.013 15.5661 412.936 23.858C412.474 24.3996 411.967 24.9018 411.421 25.359L410.74 25.9293C407.134 28.9491 402.701 30.8114 398.02 31.2721L386.701 32.3864H366.873C357.902 32.3864 349.168 35.2546 341.943 40.5709C339.858 42.1052 337.918 43.8286 336.15 45.7194L330.729 51.5162C330.133 52.1532 329.596 52.8424 329.125 53.5758C321.841 64.9023 304.281 59.7442 304.281 46.278V23.0953C304.281 11.8814 313.372 2.79065 324.585 2.79065Z" stroke="white"/>
<path d="M395.415 91.1201H316.781C305.88 91.1201 299.987 78.3447 307.064 70.0527C307.526 69.5111 308.033 69.0089 308.579 68.5518L309.26 67.9814C312.866 64.9616 317.299 63.0994 321.98 62.6387L333.299 61.5244H353.127C362.098 61.5243 370.832 58.6562 378.057 53.3398C380.142 51.8055 382.082 50.0822 383.85 48.1914L389.271 42.3945C389.867 41.7576 390.404 41.0684 390.875 40.335C398.159 29.0084 415.719 34.1666 415.719 47.6328V70.8154C415.719 82.0293 406.628 91.1201 395.415 91.1201Z" stroke="white"/>
<path d="M468.585 2.79065H547.219C558.12 2.79068 564.013 15.5661 556.936 23.858C556.474 24.3996 555.967 24.9018 555.421 25.359L554.74 25.9293C551.134 28.9491 546.701 30.8114 542.02 31.2721L530.701 32.3864H510.873C501.902 32.3864 493.168 35.2546 485.943 40.5709C483.858 42.1052 481.918 43.8286 480.15 45.7194L474.729 51.5162C474.133 52.1532 473.596 52.8424 473.125 53.5758C465.841 64.9023 448.281 59.7442 448.281 46.278V23.0953C448.281 11.8814 457.372 2.79065 468.585 2.79065Z" stroke="white"/>
<path d="M539.415 91.1201H460.781C449.88 91.1201 443.987 78.3447 451.064 70.0527C451.526 69.5111 452.033 69.0089 452.579 68.5518L453.26 67.9814C456.866 64.9616 461.299 63.0994 465.98 62.6387L477.299 61.5244H497.127C506.098 61.5243 514.832 58.6562 522.057 53.3398C524.142 51.8055 526.082 50.0822 527.85 48.1914L533.271 42.3945C533.867 41.7576 534.404 41.0684 534.875 40.335C542.159 29.0084 559.719 34.1666 559.719 47.6328V70.8154C559.719 82.0293 550.628 91.1201 539.415 91.1201Z" stroke="white"/>
<path d="M612.585 2.79065H691.219C702.12 2.79068 708.013 15.5661 700.936 23.858C700.474 24.3996 699.967 24.9018 699.421 25.359L698.74 25.9293C695.134 28.9491 690.701 30.8114 686.02 31.2721L674.701 32.3864H654.873C645.902 32.3864 637.168 35.2546 629.943 40.5709C627.858 42.1052 625.918 43.8286 624.15 45.7194L618.729 51.5162C618.133 52.1532 617.596 52.8424 617.125 53.5758C609.841 64.9023 592.281 59.7442 592.281 46.278V23.0953C592.281 11.8814 601.372 2.79065 612.585 2.79065Z" stroke="white"/>
<path d="M683.415 91.1201H604.781C593.88 91.1201 587.987 78.3447 595.064 70.0527C595.526 69.5111 596.033 69.0089 596.579 68.5518L597.26 67.9814C600.866 64.9616 605.299 63.0994 609.98 62.6387L621.299 61.5244H641.127C650.098 61.5243 658.832 58.6562 666.057 53.3398C668.142 51.8055 670.082 50.0822 671.85 48.1914L677.271 42.3945C677.867 41.7576 678.404 41.0684 678.875 40.335C686.159 29.0084 703.719 34.1666 703.719 47.6328V70.8154C703.719 82.0293 694.628 91.1201 683.415 91.1201Z" stroke="white"/>
<path d="M756.585 2.79065H835.219C846.12 2.79068 852.013 15.5661 844.936 23.858C844.474 24.3996 843.967 24.9018 843.421 25.359L842.74 25.9293C839.134 28.9491 834.701 30.8114 830.02 31.2721L818.701 32.3864H798.873C789.902 32.3864 781.168 35.2546 773.943 40.5709C771.858 42.1052 769.918 43.8286 768.15 45.7194L762.729 51.5162C762.133 52.1532 761.596 52.8424 761.125 53.5758C753.841 64.9023 736.281 59.7442 736.281 46.278V23.0953C736.281 11.8814 745.372 2.79065 756.585 2.79065Z" stroke="white"/>
<path d="M827.415 91.1201H748.781C737.88 91.1201 731.987 78.3447 739.064 70.0527C739.526 69.5111 740.033 69.0089 740.579 68.5518L741.26 67.9814C744.866 64.9616 749.299 63.0994 753.98 62.6387L765.299 61.5244H785.127C794.098 61.5243 802.832 58.6562 810.057 53.3398C812.142 51.8055 814.082 50.0822 815.85 48.1914L821.271 42.3945C821.867 41.7576 822.404 41.0684 822.875 40.335C830.159 29.0084 847.719 34.1666 847.719 47.6328V70.8154C847.719 82.0293 838.628 91.1201 827.415 91.1201Z" stroke="white"/>
<path d="M900.585 2.79065H979.219C990.12 2.79068 996.013 15.5661 988.936 23.858C988.474 24.3996 987.967 24.9018 987.421 25.359L986.74 25.9293C983.134 28.9491 978.701 30.8114 974.02 31.2721L962.701 32.3864H942.873C933.902 32.3864 925.168 35.2546 917.943 40.5709C915.858 42.1052 913.918 43.8286 912.15 45.7194L906.729 51.5162C906.133 52.1532 905.596 52.8424 905.125 53.5758C897.841 64.9023 880.281 59.7442 880.281 46.278V23.0953C880.281 11.8814 889.372 2.79065 900.585 2.79065Z" stroke="white"/>
<path d="M971.415 91.1201H892.781C881.88 91.1201 875.987 78.3447 883.064 70.0527C883.526 69.5111 884.033 69.0089 884.579 68.5518L885.26 67.9814C888.866 64.9616 893.299 63.0994 897.98 62.6387L909.299 61.5244H929.127C938.098 61.5243 946.832 58.6562 954.057 53.3398C956.142 51.8055 958.082 50.0822 959.85 48.1914L965.271 42.3945C965.867 41.7576 966.404 41.0684 966.875 40.335C974.159 29.0084 991.719 34.1666 991.719 47.6328V70.8154C991.719 82.0293 982.628 91.1201 971.415 91.1201Z" stroke="white"/>
<path d="M1044.59 2.79065H1123.22C1134.12 2.79068 1140.01 15.5661 1132.94 23.858C1132.47 24.3996 1131.97 24.9018 1131.42 25.359L1130.74 25.9293C1127.13 28.9491 1122.7 30.8114 1118.02 31.2721L1106.7 32.3864H1086.87C1077.9 32.3864 1069.17 35.2546 1061.94 40.5709C1059.86 42.1052 1057.92 43.8286 1056.15 45.7194L1050.73 51.5162C1050.13 52.1532 1049.6 52.8424 1049.12 53.5758C1041.84 64.9023 1024.28 59.7442 1024.28 46.278V23.0953C1024.28 11.8814 1033.37 2.79065 1044.59 2.79065Z" stroke="white"/>
<path d="M1115.41 91.1201H1036.78C1025.88 91.1201 1019.99 78.3447 1027.06 70.0527C1027.53 69.5111 1028.03 69.0089 1028.58 68.5518L1029.26 67.9814C1032.87 64.9616 1037.3 63.0994 1041.98 62.6387L1053.3 61.5244H1073.13C1082.1 61.5243 1090.83 58.6562 1098.06 53.3398C1100.14 51.8055 1102.08 50.0822 1103.85 48.1914L1109.27 42.3945C1109.87 41.7576 1110.4 41.0684 1110.88 40.335C1118.16 29.0084 1135.72 34.1666 1135.72 47.6328V70.8154C1135.72 82.0293 1126.63 91.1201 1115.41 91.1201Z" stroke="white"/>
<path d="M1188.59 2.79065H1267.22C1278.12 2.79068 1284.01 15.5661 1276.94 23.858C1276.47 24.3996 1275.97 24.9018 1275.42 25.359L1274.74 25.9293C1271.13 28.9491 1266.7 30.8114 1262.02 31.2721L1250.7 32.3864H1230.87C1221.9 32.3864 1213.17 35.2546 1205.94 40.5709C1203.86 42.1052 1201.92 43.8286 1200.15 45.7194L1194.73 51.5162C1194.13 52.1532 1193.6 52.8424 1193.12 53.5758C1185.84 64.9023 1168.28 59.7442 1168.28 46.278V23.0953C1168.28 11.8814 1177.37 2.79065 1188.59 2.79065Z" stroke="white"/>
<path d="M1259.41 91.1201H1180.78C1169.88 91.1201 1163.99 78.3447 1171.06 70.0527C1171.53 69.5111 1172.03 69.0089 1172.58 68.5518L1173.26 67.9814C1176.87 64.9616 1181.3 63.0994 1185.98 62.6387L1197.3 61.5244H1217.13C1226.1 61.5243 1234.83 58.6562 1242.06 53.3398C1244.14 51.8055 1246.08 50.0822 1247.85 48.1914L1253.27 42.3945C1253.87 41.7576 1254.4 41.0684 1254.88 40.335C1262.16 29.0084 1279.72 34.1666 1279.72 47.6328V70.8154C1279.72 82.0293 1270.63 91.1201 1259.41 91.1201Z" stroke="white"/>
<path d="M1332.59 2.79065H1411.22C1422.12 2.79068 1428.01 15.5661 1420.94 23.858C1420.47 24.3996 1419.97 24.9018 1419.42 25.359L1418.74 25.9293C1415.13 28.9491 1410.7 30.8114 1406.02 31.2721L1394.7 32.3864H1374.87C1365.9 32.3864 1357.17 35.2546 1349.94 40.5709C1347.86 42.1052 1345.92 43.8286 1344.15 45.7194L1338.73 51.5162C1338.13 52.1532 1337.6 52.8424 1337.12 53.5758C1329.84 64.9023 1312.28 59.7442 1312.28 46.278V23.0953C1312.28 11.8814 1321.37 2.79065 1332.59 2.79065Z" stroke="white"/>
<path d="M1403.41 91.1201H1324.78C1313.88 91.1201 1307.99 78.3447 1315.06 70.0527C1315.53 69.5111 1316.03 69.0089 1316.58 68.5518L1317.26 67.9814C1320.87 64.9616 1325.3 63.0994 1329.98 62.6387L1341.3 61.5244H1361.13C1370.1 61.5243 1378.83 58.6562 1386.06 53.3398C1388.14 51.8055 1390.08 50.0822 1391.85 48.1914L1397.27 42.3945C1397.87 41.7576 1398.4 41.0684 1398.88 40.335C1406.16 29.0084 1423.72 34.1666 1423.72 47.6328V70.8154C1423.72 82.0293 1414.63 91.1201 1403.41 91.1201Z" stroke="white"/>
<path d="M36.5854 108.154H115.219C126.12 108.154 132.013 120.93 124.936 129.221C124.474 129.763 123.967 130.265 123.421 130.722L122.74 131.293C119.134 134.313 114.701 136.175 110.02 136.635L98.7007 137.75H78.8726C69.9025 137.75 61.1677 140.618 53.9429 145.934C51.8578 147.469 49.9181 149.192 48.1499 151.083L42.729 156.88C42.1334 157.517 41.5962 158.206 41.1245 158.939C33.8407 170.266 16.2811 165.108 16.2808 151.641V128.459C16.2808 117.245 25.3716 108.154 36.5854 108.154Z" stroke="white"/>
<path d="M107.415 196.483H28.7808C17.8796 196.483 11.9873 183.708 19.064 175.416C19.5262 174.874 20.0327 174.372 20.5786 173.915L21.2603 173.345C24.8663 170.325 29.2991 168.463 33.98 168.002L45.2993 166.888H65.1274C74.0975 166.888 82.8323 164.019 90.0571 158.703C92.1422 157.169 94.0819 155.445 95.8501 153.555L101.271 147.758C101.867 147.121 102.404 146.432 102.875 145.698C110.159 134.372 127.719 139.53 127.719 152.996V176.179C127.719 187.393 118.628 196.483 107.415 196.483Z" stroke="white"/>
<path d="M180.585 108.154H259.219C270.12 108.154 276.013 120.93 268.936 129.221C268.474 129.763 267.967 130.265 267.421 130.722L266.74 131.293C263.134 134.313 258.701 136.175 254.02 136.635L242.701 137.75H222.873C213.902 137.75 205.168 140.618 197.943 145.934C195.858 147.469 193.918 149.192 192.15 151.083L186.729 156.88C186.133 157.517 185.596 158.206 185.125 158.939C177.841 170.266 160.281 165.108 160.281 151.641V128.459C160.281 117.245 169.372 108.154 180.585 108.154Z" stroke="white"/>
<path d="M251.415 196.483H172.781C161.88 196.483 155.987 183.708 163.064 175.416C163.526 174.874 164.033 174.372 164.579 173.915L165.26 173.345C168.866 170.325 173.299 168.463 177.98 168.002L189.299 166.888H209.127C218.098 166.888 226.832 164.019 234.057 158.703C236.142 157.169 238.082 155.445 239.85 153.555L245.271 147.758C245.867 147.121 246.404 146.432 246.875 145.698C254.159 134.372 271.719 139.53 271.719 152.996V176.179C271.719 187.393 262.628 196.483 251.415 196.483Z" stroke="white"/>
<path d="M324.585 108.154H403.219C414.12 108.154 420.013 120.93 412.936 129.221C412.474 129.763 411.967 130.265 411.421 130.722L410.74 131.293C407.134 134.313 402.701 136.175 398.02 136.635L386.701 137.75H366.873C357.902 137.75 349.168 140.618 341.943 145.934C339.858 147.469 337.918 149.192 336.15 151.083L330.729 156.88C330.133 157.517 329.596 158.206 329.125 158.939C321.841 170.266 304.281 165.108 304.281 151.641V128.459C304.281 117.245 313.372 108.154 324.585 108.154Z" stroke="white"/>
<path d="M395.415 196.483H316.781C305.88 196.483 299.987 183.708 307.064 175.416C307.526 174.874 308.033 174.372 308.579 173.915L309.26 173.345C312.866 170.325 317.299 168.463 321.98 168.002L333.299 166.888H353.127C362.098 166.888 370.832 164.019 378.057 158.703C380.142 157.169 382.082 155.445 383.85 153.555L389.271 147.758C389.867 147.121 390.404 146.432 390.875 145.698C398.159 134.372 415.719 139.53 415.719 152.996V176.179C415.719 187.393 406.628 196.483 395.415 196.483Z" stroke="white"/>
<path d="M468.585 108.154H547.219C558.12 108.154 564.013 120.93 556.936 129.221C556.474 129.763 555.967 130.265 555.421 130.722L554.74 131.293C551.134 134.313 546.701 136.175 542.02 136.635L530.701 137.75H510.873C501.902 137.75 493.168 140.618 485.943 145.934C483.858 147.469 481.918 149.192 480.15 151.083L474.729 156.88C474.133 157.517 473.596 158.206 473.125 158.939C465.841 170.266 448.281 165.108 448.281 151.641V128.459C448.281 117.245 457.372 108.154 468.585 108.154Z" stroke="white"/>
<path d="M539.415 196.483H460.781C449.88 196.483 443.987 183.708 451.064 175.416C451.526 174.874 452.033 174.372 452.579 173.915L453.26 173.345C456.866 170.325 461.299 168.463 465.98 168.002L477.299 166.888H497.127C506.098 166.888 514.832 164.019 522.057 158.703C524.142 157.169 526.082 155.445 527.85 153.555L533.271 147.758C533.867 147.121 534.404 146.432 534.875 145.698C542.159 134.372 559.719 139.53 559.719 152.996V176.179C559.719 187.393 550.628 196.483 539.415 196.483Z" stroke="white"/>
<path d="M612.585 108.154H691.219C702.12 108.154 708.013 120.93 700.936 129.221C700.474 129.763 699.967 130.265 699.421 130.722L698.74 131.293C695.134 134.313 690.701 136.175 686.02 136.635L674.701 137.75H654.873C645.902 137.75 637.168 140.618 629.943 145.934C627.858 147.469 625.918 149.192 624.15 151.083L618.729 156.88C618.133 157.517 617.596 158.206 617.125 158.939C609.841 170.266 592.281 165.108 592.281 151.641V128.459C592.281 117.245 601.372 108.154 612.585 108.154Z" stroke="white"/>
<path d="M683.415 196.483H604.781C593.88 196.483 587.987 183.708 595.064 175.416C595.526 174.874 596.033 174.372 596.579 173.915L597.26 173.345C600.866 170.325 605.299 168.463 609.98 168.002L621.299 166.888H641.127C650.098 166.888 658.832 164.019 666.057 158.703C668.142 157.169 670.082 155.445 671.85 153.555L677.271 147.758C677.867 147.121 678.404 146.432 678.875 145.698C686.159 134.372 703.719 139.53 703.719 152.996V176.179C703.719 187.393 694.628 196.483 683.415 196.483Z" stroke="white"/>
<path d="M756.585 108.154H835.219C846.12 108.154 852.013 120.93 844.936 129.221C844.474 129.763 843.967 130.265 843.421 130.722L842.74 131.293C839.134 134.313 834.701 136.175 830.02 136.635L818.701 137.75H798.873C789.902 137.75 781.168 140.618 773.943 145.934C771.858 147.469 769.918 149.192 768.15 151.083L762.729 156.88C762.133 157.517 761.596 158.206 761.125 158.939C753.841 170.266 736.281 165.108 736.281 151.641V128.459C736.281 117.245 745.372 108.154 756.585 108.154Z" stroke="white"/>
<path d="M827.415 196.483H748.781C737.88 196.483 731.987 183.708 739.064 175.416C739.526 174.874 740.033 174.372 740.579 173.915L741.26 173.345C744.866 170.325 749.299 168.463 753.98 168.002L765.299 166.888H785.127C794.098 166.888 802.832 164.019 810.057 158.703C812.142 157.169 814.082 155.445 815.85 153.555L821.271 147.758C821.867 147.121 822.404 146.432 822.875 145.698C830.159 134.372 847.719 139.53 847.719 152.996V176.179C847.719 187.393 838.628 196.483 827.415 196.483Z" stroke="white"/>
<path d="M900.585 108.154H979.219C990.12 108.154 996.013 120.93 988.936 129.221C988.474 129.763 987.967 130.265 987.421 130.722L986.74 131.293C983.134 134.313 978.701 136.175 974.02 136.635L962.701 137.75H942.873C933.902 137.75 925.168 140.618 917.943 145.934C915.858 147.469 913.918 149.192 912.15 151.083L906.729 156.88C906.133 157.517 905.596 158.206 905.125 158.939C897.841 170.266 880.281 165.108 880.281 151.641V128.459C880.281 117.245 889.372 108.154 900.585 108.154Z" stroke="white"/>
<path d="M971.415 196.483H892.781C881.88 196.483 875.987 183.708 883.064 175.416C883.526 174.874 884.033 174.372 884.579 173.915L885.26 173.345C888.866 170.325 893.299 168.463 897.98 168.002L909.299 166.888H929.127C938.098 166.888 946.832 164.019 954.057 158.703C956.142 157.169 958.082 155.445 959.85 153.555L965.271 147.758C965.867 147.121 966.404 146.432 966.875 145.698C974.159 134.372 991.719 139.53 991.719 152.996V176.179C991.719 187.393 982.628 196.483 971.415 196.483Z" stroke="white"/>
<path d="M1044.59 108.154H1123.22C1134.12 108.154 1140.01 120.93 1132.94 129.221C1132.47 129.763 1131.97 130.265 1131.42 130.722L1130.74 131.293C1127.13 134.313 1122.7 136.175 1118.02 136.635L1106.7 137.75H1086.87C1077.9 137.75 1069.17 140.618 1061.94 145.934C1059.86 147.469 1057.92 149.192 1056.15 151.083L1050.73 156.88C1050.13 157.517 1049.6 158.206 1049.12 158.939C1041.84 170.266 1024.28 165.108 1024.28 151.641V128.459C1024.28 117.245 1033.37 108.154 1044.59 108.154Z" stroke="white"/>
<path d="M1115.41 196.483H1036.78C1025.88 196.483 1019.99 183.708 1027.06 175.416C1027.53 174.874 1028.03 174.372 1028.58 173.915L1029.26 173.345C1032.87 170.325 1037.3 168.463 1041.98 168.002L1053.3 166.888H1073.13C1082.1 166.888 1090.83 164.019 1098.06 158.703C1100.14 157.169 1102.08 155.445 1103.85 153.555L1109.27 147.758C1109.87 147.121 1110.4 146.432 1110.88 145.698C1118.16 134.372 1135.72 139.53 1135.72 152.996V176.179C1135.72 187.393 1126.63 196.483 1115.41 196.483Z" stroke="white"/>
<path d="M1188.59 108.154H1267.22C1278.12 108.154 1284.01 120.93 1276.94 129.221C1276.47 129.763 1275.97 130.265 1275.42 130.722L1274.74 131.293C1271.13 134.313 1266.7 136.175 1262.02 136.635L1250.7 137.75H1230.87C1221.9 137.75 1213.17 140.618 1205.94 145.934C1203.86 147.469 1201.92 149.192 1200.15 151.083L1194.73 156.88C1194.13 157.517 1193.6 158.206 1193.12 158.939C1185.84 170.266 1168.28 165.108 1168.28 151.641V128.459C1168.28 117.245 1177.37 108.154 1188.59 108.154Z" stroke="white"/>
<path d="M1259.41 196.483H1180.78C1169.88 196.483 1163.99 183.708 1171.06 175.416C1171.53 174.874 1172.03 174.372 1172.58 173.915L1173.26 173.345C1176.87 170.325 1181.3 168.463 1185.98 168.002L1197.3 166.888H1217.13C1226.1 166.888 1234.83 164.019 1242.06 158.703C1244.14 157.169 1246.08 155.445 1247.85 153.555L1253.27 147.758C1253.87 147.121 1254.4 146.432 1254.88 145.698C1262.16 134.372 1279.72 139.53 1279.72 152.996V176.179C1279.72 187.393 1270.63 196.483 1259.41 196.483Z" stroke="white"/>
<path d="M1332.59 108.154H1411.22C1422.12 108.154 1428.01 120.93 1420.94 129.221C1420.47 129.763 1419.97 130.265 1419.42 130.722L1418.74 131.293C1415.13 134.313 1410.7 136.175 1406.02 136.635L1394.7 137.75H1374.87C1365.9 137.75 1357.17 140.618 1349.94 145.934C1347.86 147.469 1345.92 149.192 1344.15 151.083L1338.73 156.88C1338.13 157.517 1337.6 158.206 1337.12 158.939C1329.84 170.266 1312.28 165.108 1312.28 151.641V128.459C1312.28 117.245 1321.37 108.154 1332.59 108.154Z" stroke="white"/>
<path d="M1403.41 196.483H1324.78C1313.88 196.483 1307.99 183.708 1315.06 175.416C1315.53 174.874 1316.03 174.372 1316.58 173.915L1317.26 173.345C1320.87 170.325 1325.3 168.463 1329.98 168.002L1341.3 166.888H1361.13C1370.1 166.888 1378.83 164.019 1386.06 158.703C1388.14 157.169 1390.08 155.445 1391.85 153.555L1397.27 147.758C1397.87 147.121 1398.4 146.432 1398.88 145.698C1406.16 134.372 1423.72 139.53 1423.72 152.996V176.179C1423.72 187.393 1414.63 196.483 1403.41 196.483Z" stroke="white"/>
<path d="M36.5854 213.517H115.219C126.12 213.517 132.013 226.293 124.936 234.585C124.474 235.126 123.967 235.629 123.421 236.086L122.74 236.656C119.134 239.676 114.701 241.538 110.02 241.999L98.7007 243.113H78.8726C69.9025 243.113 61.1677 245.981 53.9429 251.298C51.8578 252.832 49.9181 254.555 48.1499 256.446L42.729 262.243C42.1334 262.88 41.5962 263.569 41.1245 264.302C33.8407 275.629 16.2811 270.471 16.2808 257.005V233.822C16.2808 222.608 25.3716 213.517 36.5854 213.517Z" stroke="white"/>
<path d="M107.415 301.847H28.7808C17.8796 301.847 11.9873 289.071 19.064 280.78C19.5262 280.238 20.0327 279.736 20.5786 279.279L21.2603 278.708C24.8663 275.688 29.2991 273.826 33.98 273.365L45.2993 272.251H65.1274C74.0975 272.251 82.8323 269.383 90.0571 264.067C92.1422 262.532 94.0819 260.809 95.8501 258.918L101.271 253.121C101.867 252.484 102.404 251.795 102.875 251.062C110.159 239.735 127.719 244.893 127.719 258.36V281.542C127.719 292.756 118.628 301.847 107.415 301.847Z" stroke="white"/>
<path d="M180.585 213.517H259.219C270.12 213.517 276.013 226.293 268.936 234.585C268.474 235.126 267.967 235.629 267.421 236.086L266.74 236.656C263.134 239.676 258.701 241.538 254.02 241.999L242.701 243.113H222.873C213.902 243.113 205.168 245.981 197.943 251.298C195.858 252.832 193.918 254.555 192.15 256.446L186.729 262.243C186.133 262.88 185.596 263.569 185.125 264.302C177.841 275.629 160.281 270.471 160.281 257.005V233.822C160.281 222.608 169.372 213.517 180.585 213.517Z" stroke="white"/>
<path d="M251.415 301.847H172.781C161.88 301.847 155.987 289.071 163.064 280.78C163.526 280.238 164.033 279.736 164.579 279.279L165.26 278.708C168.866 275.688 173.299 273.826 177.98 273.365L189.299 272.251H209.127C218.098 272.251 226.832 269.383 234.057 264.067C236.142 262.532 238.082 260.809 239.85 258.918L245.271 253.121C245.867 252.484 246.404 251.795 246.875 251.062C254.159 239.735 271.719 244.893 271.719 258.36V281.542C271.719 292.756 262.628 301.847 251.415 301.847Z" stroke="white"/>
<path d="M324.585 213.517H403.219C414.12 213.517 420.013 226.293 412.936 234.585C412.474 235.126 411.967 235.629 411.421 236.086L410.74 236.656C407.134 239.676 402.701 241.538 398.02 241.999L386.701 243.113H366.873C357.902 243.113 349.168 245.981 341.943 251.298C339.858 252.832 337.918 254.555 336.15 256.446L330.729 262.243C330.133 262.88 329.596 263.569 329.125 264.302C321.841 275.629 304.281 270.471 304.281 257.005V233.822C304.281 222.608 313.372 213.517 324.585 213.517Z" stroke="white"/>
<path d="M395.415 301.847H316.781C305.88 301.847 299.987 289.071 307.064 280.78C307.526 280.238 308.033 279.736 308.579 279.279L309.26 278.708C312.866 275.688 317.299 273.826 321.98 273.365L333.299 272.251H353.127C362.098 272.251 370.832 269.383 378.057 264.067C380.142 262.532 382.082 260.809 383.85 258.918L389.271 253.121C389.867 252.484 390.404 251.795 390.875 251.062C398.159 239.735 415.719 244.893 415.719 258.36V281.542C415.719 292.756 406.628 301.847 395.415 301.847Z" stroke="white"/>
<path d="M468.585 213.517H547.219C558.12 213.517 564.013 226.293 556.936 234.585C556.474 235.126 555.967 235.629 555.421 236.086L554.74 236.656C551.134 239.676 546.701 241.538 542.02 241.999L530.701 243.113H510.873C501.902 243.113 493.168 245.981 485.943 251.298C483.858 252.832 481.918 254.555 480.15 256.446L474.729 262.243C474.133 262.88 473.596 263.569 473.125 264.302C465.841 275.629 448.281 270.471 448.281 257.005V233.822C448.281 222.608 457.372 213.517 468.585 213.517Z" stroke="white"/>
<path d="M539.415 301.847H460.781C449.88 301.847 443.987 289.071 451.064 280.78C451.526 280.238 452.033 279.736 452.579 279.279L453.26 278.708C456.866 275.688 461.299 273.826 465.98 273.365L477.299 272.251H497.127C506.098 272.251 514.832 269.383 522.057 264.067C524.142 262.532 526.082 260.809 527.85 258.918L533.271 253.121C533.867 252.484 534.404 251.795 534.875 251.062C542.159 239.735 559.719 244.893 559.719 258.36V281.542C559.719 292.756 550.628 301.847 539.415 301.847Z" stroke="white"/>
<path d="M612.585 213.517H691.219C702.12 213.517 708.013 226.293 700.936 234.585C700.474 235.126 699.967 235.629 699.421 236.086L698.74 236.656C695.134 239.676 690.701 241.538 686.02 241.999L674.701 243.113H654.873C645.902 243.113 637.168 245.981 629.943 251.298C627.858 252.832 625.918 254.555 624.15 256.446L618.729 262.243C618.133 262.88 617.596 263.569 617.125 264.302C609.841 275.629 592.281 270.471 592.281 257.005V233.822C592.281 222.608 601.372 213.517 612.585 213.517Z" stroke="white"/>
<path d="M683.415 301.847H604.781C593.88 301.847 587.987 289.071 595.064 280.78C595.526 280.238 596.033 279.736 596.579 279.279L597.26 278.708C600.866 275.688 605.299 273.826 609.98 273.365L621.299 272.251H641.127C650.098 272.251 658.832 269.383 666.057 264.067C668.142 262.532 670.082 260.809 671.85 258.918L677.271 253.121C677.867 252.484 678.404 251.795 678.875 251.062C686.159 239.735 703.719 244.893 703.719 258.36V281.542C703.719 292.756 694.628 301.847 683.415 301.847Z" stroke="white"/>
<path d="M756.585 213.517H835.219C846.12 213.517 852.013 226.293 844.936 234.585C844.474 235.126 843.967 235.629 843.421 236.086L842.74 236.656C839.134 239.676 834.701 241.538 830.02 241.999L818.701 243.113H798.873C789.902 243.113 781.168 245.981 773.943 251.298C771.858 252.832 769.918 254.555 768.15 256.446L762.729 262.243C762.133 262.88 761.596 263.569 761.125 264.302C753.841 275.629 736.281 270.471 736.281 257.005V233.822C736.281 222.608 745.372 213.517 756.585 213.517Z" stroke="white"/>
<path d="M827.415 301.847H748.781C737.88 301.847 731.987 289.071 739.064 280.78C739.526 280.238 740.033 279.736 740.579 279.279L741.26 278.708C744.866 275.688 749.299 273.826 753.98 273.365L765.299 272.251H785.127C794.098 272.251 802.832 269.383 810.057 264.067C812.142 262.532 814.082 260.809 815.85 258.918L821.271 253.121C821.867 252.484 822.404 251.795 822.875 251.062C830.159 239.735 847.719 244.893 847.719 258.36V281.542C847.719 292.756 838.628 301.847 827.415 301.847Z" stroke="white"/>
<path d="M900.585 213.517H979.219C990.12 213.517 996.013 226.293 988.936 234.585C988.474 235.126 987.967 235.629 987.421 236.086L986.74 236.656C983.134 239.676 978.701 241.538 974.02 241.999L962.701 243.113H942.873C933.902 243.113 925.168 245.981 917.943 251.298C915.858 252.832 913.918 254.555 912.15 256.446L906.729 262.243C906.133 262.88 905.596 263.569 905.125 264.302C897.841 275.629 880.281 270.471 880.281 257.005V233.822C880.281 222.608 889.372 213.517 900.585 213.517Z" stroke="white"/>
<path d="M971.415 301.847H892.781C881.88 301.847 875.987 289.071 883.064 280.78C883.526 280.238 884.033 279.736 884.579 279.279L885.26 278.708C888.866 275.688 893.299 273.826 897.98 273.365L909.299 272.251H929.127C938.098 272.251 946.832 269.383 954.057 264.067C956.142 262.532 958.082 260.809 959.85 258.918L965.271 253.121C965.867 252.484 966.404 251.795 966.875 251.062C974.159 239.735 991.719 244.893 991.719 258.36V281.542C991.719 292.756 982.628 301.847 971.415 301.847Z" stroke="white"/>
<path d="M1044.59 213.517H1123.22C1134.12 213.517 1140.01 226.293 1132.94 234.585C1132.47 235.126 1131.97 235.629 1131.42 236.086L1130.74 236.656C1127.13 239.676 1122.7 241.538 1118.02 241.999L1106.7 243.113H1086.87C1077.9 243.113 1069.17 245.981 1061.94 251.298C1059.86 252.832 1057.92 254.555 1056.15 256.446L1050.73 262.243C1050.13 262.88 1049.6 263.569 1049.12 264.302C1041.84 275.629 1024.28 270.471 1024.28 257.005V233.822C1024.28 222.608 1033.37 213.517 1044.59 213.517Z" stroke="white"/>
<path d="M1115.41 301.847H1036.78C1025.88 301.847 1019.99 289.071 1027.06 280.78C1027.53 280.238 1028.03 279.736 1028.58 279.279L1029.26 278.708C1032.87 275.688 1037.3 273.826 1041.98 273.365L1053.3 272.251H1073.13C1082.1 272.251 1090.83 269.383 1098.06 264.067C1100.14 262.532 1102.08 260.809 1103.85 258.918L1109.27 253.121C1109.87 252.484 1110.4 251.795 1110.88 251.062C1118.16 239.735 1135.72 244.893 1135.72 258.36V281.542C1135.72 292.756 1126.63 301.847 1115.41 301.847Z" stroke="white"/>
<path d="M1188.59 213.517H1267.22C1278.12 213.517 1284.01 226.293 1276.94 234.585C1276.47 235.126 1275.97 235.629 1275.42 236.086L1274.74 236.656C1271.13 239.676 1266.7 241.538 1262.02 241.999L1250.7 243.113H1230.87C1221.9 243.113 1213.17 245.981 1205.94 251.298C1203.86 252.832 1201.92 254.555 1200.15 256.446L1194.73 262.243C1194.13 262.88 1193.6 263.569 1193.12 264.302C1185.84 275.629 1168.28 270.471 1168.28 257.005V233.822C1168.28 222.608 1177.37 213.517 1188.59 213.517Z" stroke="white"/>
<path d="M1259.41 301.847H1180.78C1169.88 301.847 1163.99 289.071 1171.06 280.78C1171.53 280.238 1172.03 279.736 1172.58 279.279L1173.26 278.708C1176.87 275.688 1181.3 273.826 1185.98 273.365L1197.3 272.251H1217.13C1226.1 272.251 1234.83 269.383 1242.06 264.067C1244.14 262.532 1246.08 260.809 1247.85 258.918L1253.27 253.121C1253.87 252.484 1254.4 251.795 1254.88 251.062C1262.16 239.735 1279.72 244.893 1279.72 258.36V281.542C1279.72 292.756 1270.63 301.847 1259.41 301.847Z" stroke="white"/>
<path d="M1332.59 213.517H1411.22C1422.12 213.517 1428.01 226.293 1420.94 234.585C1420.47 235.126 1419.97 235.629 1419.42 236.086L1418.74 236.656C1415.13 239.676 1410.7 241.538 1406.02 241.999L1394.7 243.113H1374.87C1365.9 243.113 1357.17 245.981 1349.94 251.298C1347.86 252.832 1345.92 254.555 1344.15 256.446L1338.73 262.243C1338.13 262.88 1337.6 263.569 1337.12 264.302C1329.84 275.629 1312.28 270.471 1312.28 257.005V233.822C1312.28 222.608 1321.37 213.517 1332.59 213.517Z" stroke="white"/>
<path d="M1403.41 301.847H1324.78C1313.88 301.847 1307.99 289.071 1315.06 280.78C1315.53 280.238 1316.03 279.736 1316.58 279.279L1317.26 278.708C1320.87 275.688 1325.3 273.826 1329.98 273.365L1341.3 272.251H1361.13C1370.1 272.251 1378.83 269.383 1386.06 264.067C1388.14 262.532 1390.08 260.809 1391.85 258.918L1397.27 253.121C1397.87 252.484 1398.4 251.795 1398.88 251.062C1406.16 239.735 1423.72 244.893 1423.72 258.36V281.542C1423.72 292.756 1414.63 301.847 1403.41 301.847Z" stroke="white"/>
<path d="M36.5854 318.88H115.219C126.12 318.88 132.013 331.656 124.936 339.948C124.474 340.489 123.967 340.991 123.421 341.448L122.74 342.019C119.134 345.039 114.701 346.901 110.02 347.362L98.7007 348.476H78.8726C69.9025 348.476 61.1677 351.344 53.9429 356.66C51.8578 358.195 49.9181 359.918 48.1499 361.809L42.729 367.606C42.1334 368.243 41.5962 368.932 41.1245 369.665C33.8407 380.992 16.2811 375.834 16.2808 362.367V339.185C16.2808 327.971 25.3716 318.88 36.5854 318.88Z" stroke="white"/>
<path d="M107.415 407.21H28.7808C17.8796 407.21 11.9873 394.435 19.064 386.143C19.5262 385.601 20.0327 385.099 20.5786 384.642L21.2603 384.072C24.8663 381.052 29.2991 379.19 33.98 378.729L45.2993 377.615H65.1274C74.0975 377.614 82.8323 374.746 90.0571 369.43C92.1422 367.896 94.0819 366.172 95.8501 364.281L101.271 358.485C101.867 357.848 102.404 357.158 102.875 356.425C110.159 345.099 127.719 350.257 127.719 363.723V386.906C127.719 398.119 118.628 407.21 107.415 407.21Z" stroke="white"/>
<path d="M180.585 318.88H259.219C270.12 318.88 276.013 331.656 268.936 339.948C268.474 340.489 267.967 340.991 267.421 341.448L266.74 342.019C263.134 345.039 258.701 346.901 254.02 347.362L242.701 348.476H222.873C213.902 348.476 205.168 351.344 197.943 356.66C195.858 358.195 193.918 359.918 192.15 361.809L186.729 367.606C186.133 368.243 185.596 368.932 185.125 369.665C177.841 380.992 160.281 375.834 160.281 362.367V339.185C160.281 327.971 169.372 318.88 180.585 318.88Z" stroke="white"/>
<path d="M251.415 407.21H172.781C161.88 407.21 155.987 394.435 163.064 386.143C163.526 385.601 164.033 385.099 164.579 384.642L165.26 384.072C168.866 381.052 173.299 379.19 177.98 378.729L189.299 377.615H209.127C218.098 377.614 226.832 374.746 234.057 369.43C236.142 367.896 238.082 366.172 239.85 364.281L245.271 358.485C245.867 357.848 246.404 357.158 246.875 356.425C254.159 345.099 271.719 350.257 271.719 363.723V386.906C271.719 398.119 262.628 407.21 251.415 407.21Z" stroke="white"/>
<path d="M324.585 318.88H403.219C414.12 318.88 420.013 331.656 412.936 339.948C412.474 340.489 411.967 340.991 411.421 341.448L410.74 342.019C407.134 345.039 402.701 346.901 398.02 347.362L386.701 348.476H366.873C357.902 348.476 349.168 351.344 341.943 356.66C339.858 358.195 337.918 359.918 336.15 361.809L330.729 367.606C330.133 368.243 329.596 368.932 329.125 369.665C321.841 380.992 304.281 375.834 304.281 362.367V339.185C304.281 327.971 313.372 318.88 324.585 318.88Z" stroke="white"/>
<path d="M395.415 407.21H316.781C305.88 407.21 299.987 394.435 307.064 386.143C307.526 385.601 308.033 385.099 308.579 384.642L309.26 384.072C312.866 381.052 317.299 379.19 321.98 378.729L333.299 377.615H353.127C362.098 377.614 370.832 374.746 378.057 369.43C380.142 367.896 382.082 366.172 383.85 364.281L389.271 358.485C389.867 357.848 390.404 357.158 390.875 356.425C398.159 345.099 415.719 350.257 415.719 363.723V386.906C415.719 398.119 406.628 407.21 395.415 407.21Z" stroke="white"/>
<path d="M468.585 318.88H547.219C558.12 318.88 564.013 331.656 556.936 339.948C556.474 340.489 555.967 340.991 555.421 341.448L554.74 342.019C551.134 345.039 546.701 346.901 542.02 347.362L530.701 348.476H510.873C501.902 348.476 493.168 351.344 485.943 356.66C483.858 358.195 481.918 359.918 480.15 361.809L474.729 367.606C474.133 368.243 473.596 368.932 473.125 369.665C465.841 380.992 448.281 375.834 448.281 362.367V339.185C448.281 327.971 457.372 318.88 468.585 318.88Z" stroke="white"/>
<path d="M539.415 407.21H460.781C449.88 407.21 443.987 394.435 451.064 386.143C451.526 385.601 452.033 385.099 452.579 384.642L453.26 384.072C456.866 381.052 461.299 379.19 465.98 378.729L477.299 377.615H497.127C506.098 377.614 514.832 374.746 522.057 369.43C524.142 367.896 526.082 366.172 527.85 364.281L533.271 358.485C533.867 357.848 534.404 357.158 534.875 356.425C542.159 345.099 559.719 350.257 559.719 363.723V386.906C559.719 398.119 550.628 407.21 539.415 407.21Z" stroke="white"/>
<path d="M612.585 318.88H691.219C702.12 318.88 708.013 331.656 700.936 339.948C700.474 340.489 699.967 340.991 699.421 341.448L698.74 342.019C695.134 345.039 690.701 346.901 686.02 347.362L674.701 348.476H654.873C645.902 348.476 637.168 351.344 629.943 356.66C627.858 358.195 625.918 359.918 624.15 361.809L618.729 367.606C618.133 368.243 617.596 368.932 617.125 369.665C609.841 380.992 592.281 375.834 592.281 362.367V339.185C592.281 327.971 601.372 318.88 612.585 318.88Z" stroke="white"/>
<path d="M683.415 407.21H604.781C593.88 407.21 587.987 394.435 595.064 386.143C595.526 385.601 596.033 385.099 596.579 384.642L597.26 384.072C600.866 381.052 605.299 379.19 609.98 378.729L621.299 377.615H641.127C650.098 377.614 658.832 374.746 666.057 369.43C668.142 367.896 670.082 366.172 671.85 364.281L677.271 358.485C677.867 357.848 678.404 357.158 678.875 356.425C686.159 345.099 703.719 350.257 703.719 363.723V386.906C703.719 398.119 694.628 407.21 683.415 407.21Z" stroke="white"/>
<path d="M756.585 318.88H835.219C846.12 318.88 852.013 331.656 844.936 339.948C844.474 340.489 843.967 340.991 843.421 341.448L842.74 342.019C839.134 345.039 834.701 346.901 830.02 347.362L818.701 348.476H798.873C789.902 348.476 781.168 351.344 773.943 356.66C771.858 358.195 769.918 359.918 768.15 361.809L762.729 367.606C762.133 368.243 761.596 368.932 761.125 369.665C753.841 380.992 736.281 375.834 736.281 362.367V339.185C736.281 327.971 745.372 318.88 756.585 318.88Z" stroke="white"/>
<path d="M827.415 407.21H748.781C737.88 407.21 731.987 394.435 739.064 386.143C739.526 385.601 740.033 385.099 740.579 384.642L741.26 384.072C744.866 381.052 749.299 379.19 753.98 378.729L765.299 377.615H785.127C794.098 377.614 802.832 374.746 810.057 369.43C812.142 367.896 814.082 366.172 815.85 364.281L821.271 358.485C821.867 357.848 822.404 357.158 822.875 356.425C830.159 345.099 847.719 350.257 847.719 363.723V386.906C847.719 398.119 838.628 407.21 827.415 407.21Z" stroke="white"/>
<path d="M900.585 318.88H979.219C990.12 318.88 996.013 331.656 988.936 339.948C988.474 340.489 987.967 340.991 987.421 341.448L986.74 342.019C983.134 345.039 978.701 346.901 974.02 347.362L962.701 348.476H942.873C933.902 348.476 925.168 351.344 917.943 356.66C915.858 358.195 913.918 359.918 912.15 361.809L906.729 367.606C906.133 368.243 905.596 368.932 905.125 369.665C897.841 380.992 880.281 375.834 880.281 362.367V339.185C880.281 328.146 889.089 319.165 900.061 318.887L900.585 318.88Z" stroke="white"/>
<path d="M971.415 407.21H892.781C881.88 407.21 875.987 394.435 883.064 386.143C883.526 385.601 884.033 385.099 884.579 384.642L885.26 384.072C888.866 381.052 893.299 379.19 897.98 378.729L909.299 377.615H929.127C938.098 377.614 946.832 374.746 954.057 369.43C956.142 367.896 958.082 366.172 959.85 364.281L965.271 358.485C965.867 357.848 966.404 357.158 966.875 356.425C974.159 345.099 991.719 350.257 991.719 363.723V386.906C991.719 398.119 982.628 407.21 971.415 407.21Z" stroke="white"/>
<path d="M1044.59 318.88H1123.22C1134.12 318.88 1140.01 331.656 1132.94 339.948C1132.47 340.489 1131.97 340.991 1131.42 341.448L1130.74 342.019C1127.13 345.039 1122.7 346.901 1118.02 347.362L1106.7 348.476H1086.87C1077.9 348.476 1069.17 351.344 1061.94 356.66C1059.86 358.195 1057.92 359.918 1056.15 361.809L1050.73 367.606C1050.13 368.243 1049.6 368.932 1049.12 369.665C1041.84 380.992 1024.28 375.834 1024.28 362.367V339.185C1024.28 327.971 1033.37 318.88 1044.59 318.88Z" stroke="white"/>
<path d="M1115.41 407.21H1036.78C1025.88 407.21 1019.99 394.435 1027.06 386.143C1027.53 385.601 1028.03 385.099 1028.58 384.642L1029.26 384.072C1032.87 381.052 1037.3 379.19 1041.98 378.729L1053.3 377.615H1073.13C1082.1 377.614 1090.83 374.746 1098.06 369.43C1100.14 367.896 1102.08 366.172 1103.85 364.281L1109.27 358.485C1109.87 357.848 1110.4 357.158 1110.88 356.425C1118.16 345.099 1135.72 350.257 1135.72 363.723V386.906C1135.72 398.119 1126.63 407.21 1115.41 407.21Z" stroke="white"/>
<path d="M1188.59 318.88H1267.22C1278.12 318.88 1284.01 331.656 1276.94 339.948C1276.47 340.489 1275.97 340.991 1275.42 341.448L1274.74 342.019C1271.13 345.039 1266.7 346.901 1262.02 347.362L1250.7 348.476H1230.87C1221.9 348.476 1213.17 351.344 1205.94 356.66C1203.86 358.195 1201.92 359.918 1200.15 361.809L1194.73 367.606C1194.13 368.243 1193.6 368.932 1193.12 369.665C1185.84 380.992 1168.28 375.834 1168.28 362.367V339.185C1168.28 327.971 1177.37 318.88 1188.59 318.88Z" stroke="white"/>
<path d="M1259.41 407.209H1180.78C1169.88 407.209 1163.99 394.434 1171.06 386.142C1171.53 385.6 1172.03 385.098 1172.58 384.641L1173.26 384.071C1176.87 381.051 1181.3 379.189 1185.98 378.728L1197.3 377.614H1217.13C1226.1 377.614 1234.83 374.746 1242.06 369.429C1244.14 367.895 1246.08 366.172 1247.85 364.281L1253.27 358.484C1253.87 357.847 1254.4 357.158 1254.88 356.424C1262.16 345.098 1279.72 350.256 1279.72 363.722V386.905C1279.72 398.119 1270.63 407.209 1259.41 407.209Z" stroke="white"/>
<path d="M1332.59 318.88H1411.22C1422.12 318.88 1428.01 331.656 1420.94 339.948C1420.47 340.489 1419.97 340.991 1419.42 341.448L1418.74 342.019C1415.13 345.039 1410.7 346.901 1406.02 347.362L1394.7 348.476H1374.87C1365.9 348.476 1357.17 351.344 1349.94 356.66C1347.86 358.195 1345.92 359.918 1344.15 361.809L1338.73 367.606C1338.13 368.243 1337.6 368.932 1337.12 369.665C1329.84 380.992 1312.28 375.834 1312.28 362.367V339.185C1312.28 327.971 1321.37 318.88 1332.59 318.88Z" stroke="white"/>
<path d="M1403.41 407.21H1324.78C1313.88 407.21 1307.99 394.435 1315.06 386.143C1315.53 385.601 1316.03 385.099 1316.58 384.642L1317.26 384.072C1320.87 381.052 1325.3 379.19 1329.98 378.729L1341.3 377.615H1361.13C1370.1 377.614 1378.83 374.746 1386.06 369.43C1388.14 367.896 1390.08 366.172 1391.85 364.281L1397.27 358.485C1397.87 357.848 1398.4 357.158 1398.88 356.425C1406.16 345.099 1423.72 350.257 1423.72 363.723V386.906C1423.72 398.119 1414.63 407.21 1403.41 407.21Z" stroke="white"/>
</g>
</svg>
